<svg width="22" height="18" viewBox="0 0 22 18" xmlns="http://www.w3.org/2000/svg"><title>Fill 3445 + Fill 3446 + Fill 3447</title><path d="M18.555 12.34h-11a.504.504 0 0 1-.466-.32L2.936 1.341H1v1c0 .279-.224.5-.5.5a.498.498 0 0 1-.5-.5v-1.5C0 .56.224.34.5.34h2.777c.206 0 .392.13.466.321l4.153 10.68H18.21l2.32-6.091L6.791 3.34a.507.507 0 0 1-.426-.569.504.504 0 0 1 .565-.42l14.36 2a.47.47 0 0 1 .361.24c.078.129.091.29.037.43l-2.667 6.999a.502.502 0 0 1-.466.32m-8.389.56a2.22 2.22 0 0 0-2.223 2.221c0 1.22.997 2.22 2.223 2.22a2.22 2.22 0 1 0 0-4.441zm0 1c.674 0 1.221.54 1.221 1.221a1.223 1.223 0 0 1-2.444 0c0-.681.547-1.221 1.223-1.221zm5.777-1a2.22 2.22 0 0 0-2.222 2.221c0 1.22.997 2.22 2.222 2.22 1.226 0 2.223-1 2.223-2.22a2.22 2.22 0 0 0-2.223-2.221zm0 1c.674 0 1.223.54 1.223 1.221a1.223 1.223 0 0 1-2.445 0c0-.681.547-1.221 1.222-1.221z" fill="#0A0B09" fill-rule="evenodd"/></svg>