<svg width="78" height="17" viewBox="0 0 78 17" xmlns="http://www.w3.org/2000/svg"><title>vimcar-logo</title><path d="M22.6 4.036h2.112l2.075 5.488h.024l2.111-5.488h1.981l-3.463 8.41h-1.483L22.6 4.037m10.685-.001h1.82v8.41h-1.82v-8.41zm5.011 0h2.76l1.933 5.488h.024l1.945-5.488h2.823v8.41h-1.85V6.005h-.06l-2.206 6.443h-1.41L40.13 6.004h.014v6.443h-1.849V4.036m18.134 2.17a1.82 1.82 0 0 0-.67-.51 2.23 2.23 0 0 0-.92-.179 2.308 2.308 0 0 0-1.737.766 2.626 2.626 0 0 0-.51.86 3.093 3.093 0 0 0-.184 1.08c0 .396.06.758.184 1.086.122.329.29.613.504.855.213.241.464.43.753.564.289.135.6.202.931.202.38 0 .716-.08 1.009-.238.292-.158.533-.38.723-.664l1.542 1.15a3.21 3.21 0 0 1-1.352 1.104 4.177 4.177 0 0 1-1.684.356 5.18 5.18 0 0 1-1.816-.308 4.154 4.154 0 0 1-1.435-.884 4.019 4.019 0 0 1-.943-1.395 4.755 4.755 0 0 1-.338-1.828c0-.672.113-1.281.338-1.827.226-.546.54-1.01.943-1.395a4.148 4.148 0 0 1 1.435-.884 5.172 5.172 0 0 1 1.816-.309 4.372 4.372 0 0 1 1.5.273c.25.095.488.222.718.38.229.158.434.352.616.582L56.43 6.206m6.879-2.17h1.53l3.654 8.41h-2.088l-.724-1.789H62.42l-.7 1.79h-2.04l3.63-8.411zm.712 2.43L63 9.077h2.052l-1.032-2.61zm6.846-2.43h3.2c.428 0 .833.034 1.217.117.383.083.719.218 1.008.412.288.194.518.453.688.781.17.329.255.737.255 1.227 0 .593-.154 1.097-.463 1.512-.308.415-.76.691-1.351.802l2.135 3.56h-2.22l-1.754-3.37h-.896v3.37h-1.82V4.036zm1.819 3.49h1.073c.167 0 .343-.02.528-.032.186-.012.354-.055.505-.114a.878.878 0 0 0 .373-.282c.1-.127.148-.306.148-.536 0-.213-.043-.384-.13-.51a.875.875 0 0 0-.332-.292 1.49 1.49 0 0 0-.463-.122c-.174-.024-.344-.021-.51-.021h-1.192v1.908zM15.94 5.495L12.208.845c-.231-.29-.725-.5-1.098-.5H5.126c-.372 0-.866.21-1.098.5L.298 5.502c-.233.29-.355.819-.272 1.18l1.332 5.824c.082.362.424.789.76.95l5.391 2.59c.335.161.884.161 1.219 0l5.391-2.592c.336-.16.678-.589.76-.95l1.332-5.824c.083-.362-.04-.894-.271-1.184m-4.62.21l-2.871 5.2c-.18.326-.473.326-.653 0l-2.87-5.2c-.18-.325-.04-.487.31-.36l2.247.815c.35.127.921.127 1.271 0l2.256-.816c.35-.127.489.036.31.362" fill="#333" fill-rule="evenodd"/></svg>